<?xml version="1.0" encoding="utf-8"?>
<!-- Generator: Adobe Illustrator 23.0.5, SVG Export Plug-In . SVG Version: 6.00 Build 0)  -->
<svg version="1.1" id="Capa_2" xmlns="http://www.w3.org/2000/svg" xmlns:xlink="http://www.w3.org/1999/xlink" x="0px" y="0px"
	 viewBox="0 0 1366 768" style="enable-background:new 0 0 1366 768;display:none;" xml:space="preserve">
<style type="text/css">
	.st0{fill:#448BAA;}
	.st1{fill:#FFFFFF;}
	.st2{fill:#162F3A;}
	.st3{fill:none;}
</style>
<path style="display:inline;fill:#448BAA;" d="M872.74,565.23H428.66c-20.8,0-37.66-16.86-37.66-37.66V211.66
	c0-20.8,16.86-37.66,37.66-37.66h444.08c20.8,0,37.66,16.86,37.66,37.66v315.91C910.4,548.37,893.54,565.23,872.74,565.23z"/>
<path style="display:inline;fill:#FFFFFF;" d="M819.39,525.74H480.96c-20.8,0-37.66-16.86-37.66-37.66V251.74
	c0-20.8,16.86-37.66,37.66-37.66h338.43c20.8,0,37.66,16.86,37.66,37.66v236.33C857.05,508.87,840.19,525.74,819.39,525.74z"/>
<path style="display:inline;fill:#162F3A;" d="M734.31,309.52c-9.6-27.99-41.46-47.96-41.46-47.96s-26.01-13.82-59.34-6.52
	c-24.66,5.4-34.96,13.82-46.34,25.2c-11.38,11.38-23.57,31.69-23.58,52.03c-0.01,20.34-3.25,19.51,8.94,50.4
	c12.19,30.89,103.25,114.63,103.25,114.63l30.08-30.89l-25.2-24.39l43.89-50.39c9.76-16.26,12.19-20.32,14.6-30.4
	C740.73,354.59,744.06,337.97,734.31,309.52z"/>
<path style="display:inline;fill:#FFFFFF;" d="M647.55,405.45l-30.89-34.14c0,0-15.45-21.14-10.57-39.83
	c4.88-18.7,17.89-26.83,17.89-26.83s5.69-7.32,23.58-8.13s26.01,5.69,26.01,5.69c3.47,2.6,8.55,7.04,13.01,13.82
	c2.49,3.79,6.35,9.66,7.57,18.2c1.45,10.14-1.62,18.38-3.51,22.45c-9.76,18.7-15.45,21.14-15.45,21.14c0,0,3.18-3.18,8.13-8.13
	c-5.15,5.15-10.3,10.3-15.45,15.45C661.1,391.9,654.32,398.67,647.55,405.45z"/>
<path style="display:inline;fill:#FFFFFF;" d="M671.61,394.58"/>
<path style="display:inline;fill:#FFFFFF;" d="M820.8,397.59"/>
<path style="display:inline;fill:#FFFFFF;" d="M817.8,406.6"/>
<path style="display:inline;fill:#FFFFFF;" d="M803.78,432.63"/>
<circle style="display:inline;fill:#448BAA;" cx="650.98" cy="343.26" r="15.85"/>
<line style="display:inline;fill:none;" x1="671.61" y1="394.58" x2="631.56" y2="434.63"/>
<path style="display:inline;fill:#162F3A;" d="M782.01,622H518.22c118.64-17.69,118.64-35.38,0-53.07c76.8,0,149.83,0,263.79,0
	C665.75,586.62,665.75,604.31,782.01,622z"/>
</svg>
